<svg xmlns="http://www.w3.org/2000/svg" viewBox="0 0 64 64">
  <defs>
    <linearGradient id="bg" x1="8" y1="6" x2="56" y2="58" gradientUnits="userSpaceOnUse">
      <stop offset="0" stop-color="#0f3d2e"/>
      <stop offset="0.55" stop-color="#166534"/>
      <stop offset="1" stop-color="#34d399"/>
    </linearGradient>
    <linearGradient id="accent" x1="19" y1="20" x2="45" y2="45" gradientUnits="userSpaceOnUse">
      <stop offset="0" stop-color="#fef3c7"/>
      <stop offset="1" stop-color="#fde68a"/>
    </linearGradient>
  </defs>
  <rect width="64" height="64" rx="16" fill="url(#bg)" />
  <path d="M15 19c0-2.761 2.239-5 5-5h24c2.761 0 5 2.239 5 5v24c0 2.761-2.239 5-5 5H28l-9 6v-11h1c-2.761 0-5-2.239-5-5V19Z" fill="#f8fafc" fill-opacity=".98"/>
  <path d="M21 26c3-4 8-6 14-6 5 0 10 1 14 4l-4 4c-3-1-6-2-10-2-4 0-7 1-8 2-1 1-1 2 1 3 2 1 5 1 8 2 7 1 15 3 15 11 0 4-2 7-5 9-4 3-9 4-15 4-7 0-14-2-19-6l4-5c4 3 10 5 15 5 4 0 7-1 9-2 2-1 2-2 2-4-1-2-4-2-10-3-7-1-17-2-17-11 0-2 1-4 3-6Z" fill="url(#accent)"/>
</svg>
